<svg width="56" height="57" viewBox="0 0 56 57" fill="none" xmlns="http://www.w3.org/2000/svg">
<path d="M24.011 9.80793L4.24769 42.8013C3.84022 43.5069 3.62461 44.307 3.62233 45.1218C3.62005 45.9367 3.83117 46.7379 4.23469 47.4458C4.6382 48.1537 5.22005 48.7437 5.92234 49.1569C6.62464 49.5702 7.42289 49.7923 8.23769 49.8013H47.7644C48.5792 49.7923 49.3774 49.5702 50.0797 49.1569C50.782 48.7437 51.3639 48.1537 51.7674 47.4458C52.1709 46.7379 52.382 45.9367 52.3797 45.1218C52.3774 44.307 52.1618 43.5069 51.7544 42.8013L31.991 9.80793C31.5751 9.12217 30.9894 8.5552 30.2905 8.16172C29.5916 7.76824 28.8031 7.56152 28.001 7.56152C27.199 7.56152 26.4105 7.76824 25.7116 8.16172C25.0127 8.5552 24.427 9.12217 24.011 9.80793Z" fill="#EA3435" stroke="#EA3435" stroke-width="4.83511" stroke-linecap="round" stroke-linejoin="round"/>
<path d="M28.001 21.8018V31.1351" stroke="white" stroke-width="4.83511" stroke-linecap="round" stroke-linejoin="round"/>
<path d="M28.001 40.4688H28.0243" stroke="white" stroke-width="4.83511" stroke-linecap="round" stroke-linejoin="round"/>
</svg>
