<svg width="25" height="25" viewBox="0 0 25 25" fill="none" xmlns="http://www.w3.org/2000/svg">
<path d="M12.5 19.5515C6.67 19.5515 3.93 13.3615 3.81 13.1015C3.77039 13.0065 3.75 12.9045 3.75 12.8015C3.75 12.6985 3.77039 12.5966 3.81 12.5015C3.93 12.2415 6.67 6.05151 12.5 6.05151C18.33 6.05151 21.07 12.2415 21.19 12.5015C21.2296 12.5966 21.25 12.6985 21.25 12.8015C21.25 12.9045 21.2296 13.0065 21.19 13.1015C21.07 13.3615 18.33 19.5515 12.5 19.5515ZM5.33 12.8015C5.92 13.9515 8.33 18.0515 12.5 18.0515C16.67 18.0515 19.08 13.9515 19.67 12.8015C19.08 11.6515 16.67 7.55151 12.5 7.55151C8.33 7.55151 5.92 11.6515 5.33 12.8015Z" fill="#495057"/>
<path d="M12.5 16.0515C11.8572 16.0515 11.2289 15.8609 10.6944 15.5038C10.1599 15.1467 9.74338 14.6391 9.49739 14.0452C9.25141 13.4514 9.18705 12.7979 9.31245 12.1675C9.43785 11.537 9.74738 10.9579 10.2019 10.5034C10.6564 10.0489 11.2355 9.73936 11.866 9.61396C12.4964 9.48856 13.1499 9.55292 13.7437 9.79891C14.3376 10.0449 14.8452 10.4615 15.2023 10.9959C15.5594 11.5304 15.75 12.1587 15.75 12.8015C15.7474 13.6627 15.4041 14.4878 14.7952 15.0967C14.1863 15.7056 13.3611 16.0489 12.5 16.0515ZM12.5 11.0515C12.1539 11.0515 11.8155 11.1542 11.5278 11.3464C11.24 11.5387 11.0157 11.812 10.8832 12.1318C10.7508 12.4516 10.7161 12.8035 10.7836 13.1429C10.8512 13.4824 11.0178 13.7942 11.2626 14.039C11.5073 14.2837 11.8191 14.4504 12.1586 14.5179C12.4981 14.5854 12.8499 14.5508 13.1697 14.4183C13.4895 14.2859 13.7628 14.0615 13.9551 13.7738C14.1474 13.486 14.25 13.1476 14.25 12.8015C14.2474 12.3382 14.0622 11.8946 13.7345 11.567C13.4069 11.2394 12.9633 11.0541 12.5 11.0515Z" fill="#495057"/>
</svg>
