<svg width="25" height="25" viewBox="0 0 25 25" fill="none" xmlns="http://www.w3.org/2000/svg">
<path d="M4.70999 21.3216C4.61375 21.3226 4.51826 21.3046 4.42902 21.2685C4.33977 21.2325 4.25854 21.1791 4.18999 21.1116C4.11139 21.0339 4.05092 20.9399 4.01288 20.8362C3.97485 20.7325 3.9602 20.6216 3.96999 20.5116L4.27999 16.6716C4.29328 16.4933 4.37156 16.326 4.49999 16.2016L15.56 5.14158C16.1762 4.5645 16.9961 4.25524 17.84 4.28158C18.6784 4.28809 19.4828 4.61345 20.09 5.19158C20.6723 5.78959 21.0073 6.58554 21.0277 7.42001C21.0481 8.25448 20.7524 9.06584 20.2 9.69158L9.12999 20.8016C9.00609 20.925 8.84386 21.0026 8.66999 21.0216L4.77999 21.3716L4.70999 21.3216ZM5.70999 17.0616L5.49999 19.8016L8.23999 19.5516L19.14 8.63158C19.3525 8.38006 19.4884 8.07282 19.5314 7.74636C19.5745 7.4199 19.5229 7.08795 19.3828 6.78993C19.2428 6.49192 19.0201 6.24037 18.7413 6.06517C18.4625 5.88997 18.1393 5.79849 17.81 5.80158C17.5936 5.78784 17.3766 5.81796 17.1721 5.89013C16.9676 5.96231 16.7798 6.07504 16.62 6.22158L5.70999 17.0616Z" fill="#495057"/>
</svg>
