<svg width="25" height="25" viewBox="0 0 25 25" fill="none" xmlns="http://www.w3.org/2000/svg">
<path d="M10.72 17.8016C10.5219 17.799 10.3326 17.7191 10.1925 17.579C10.0524 17.4389 9.97256 17.2497 9.96997 17.0516V12.5216C9.96997 12.3226 10.049 12.1319 10.1896 11.9912C10.3303 11.8506 10.5211 11.7716 10.72 11.7716C10.9189 11.7716 11.1096 11.8506 11.2503 11.9912C11.391 12.1319 11.47 12.3226 11.47 12.5216V17.0416C11.4713 17.1409 11.4529 17.2395 11.4158 17.3316C11.3787 17.4238 11.3236 17.5077 11.2539 17.5784C11.1841 17.6491 11.101 17.7052 11.0093 17.7435C10.9177 17.7818 10.8193 17.8016 10.72 17.8016Z" fill="#1E293B"/>
<path d="M13.7497 17.5819C13.8904 17.7225 14.0811 17.8016 14.28 17.8016C14.4799 17.7989 14.6706 17.7177 14.811 17.5755C14.9514 17.4332 15.03 17.2414 15.03 17.0416V12.5216C15.03 12.3226 14.951 12.1319 14.8104 11.9912C14.6697 11.8506 14.4789 11.7716 14.28 11.7716C14.0811 11.7716 13.8904 11.8506 13.7497 11.9912C13.609 12.1319 13.53 12.3226 13.53 12.5216V17.0516C13.53 17.2505 13.609 17.4412 13.7497 17.5819Z" fill="#1E293B"/>
<path fill-rule="evenodd" clip-rule="evenodd" d="M8.06 21.5516H16.94C17.2569 21.5732 17.575 21.5318 17.8757 21.4296C18.1765 21.3274 18.454 21.1666 18.6921 20.9564C18.9303 20.7461 19.1243 20.4907 19.263 20.2049C19.4016 19.9192 19.4822 19.6087 19.5 19.2916V9.50156H20.5C20.6989 9.50156 20.8897 9.42254 21.0303 9.28189C21.171 9.14123 21.25 8.95047 21.25 8.75156C21.25 8.55264 21.171 8.36188 21.0303 8.22123C20.8897 8.08057 20.6989 8.00156 20.5 8.00156H18.8169C18.7752 7.99494 18.7328 7.99156 18.69 7.99156C18.6472 7.99156 18.6048 7.99494 18.5631 8.00156H17.7856C17.8027 7.93643 17.8109 7.86916 17.81 7.80156V6.31156C17.7713 5.67744 17.4838 5.08424 17.01 4.66101C16.5362 4.23778 15.9145 4.01875 15.28 4.05156H9.72C9.0906 4.02685 8.47655 4.24953 8.00929 4.67193C7.54203 5.09432 7.25872 5.68287 7.22 6.31156V7.80156C7.22 7.86975 7.22929 7.93698 7.24716 8.00156H4.5C4.40151 8.00156 4.30398 8.02096 4.21299 8.05865C4.12199 8.09634 4.03931 8.15158 3.96967 8.22123C3.90003 8.29087 3.84478 8.37355 3.80709 8.46454C3.7694 8.55554 3.75 8.65306 3.75 8.75156C3.75 8.85005 3.7694 8.94758 3.80709 9.03857C3.84478 9.12956 3.90003 9.21224 3.96967 9.28189C4.03931 9.35153 4.12199 9.40678 4.21299 9.44447C4.30398 9.48216 4.40151 9.50156 4.5 9.50156H5.5V19.2916C5.51779 19.6087 5.59836 19.9192 5.73704 20.2049C5.87572 20.4907 6.06975 20.7461 6.30788 20.9564C6.54601 21.1666 6.8235 21.3274 7.12427 21.4296C7.42503 21.5318 7.74309 21.5732 8.06 21.5516ZM7 9.50156H17.88V19.2916C17.88 19.7016 17.44 20.0516 16.88 20.0516H8C7.47 20.0516 7 19.7016 7 19.2916V9.50156ZM8.69284 8.00156C8.71071 7.93698 8.72 7.86975 8.72 7.80156V6.31156C8.72 5.90156 9.17 5.55156 9.72 5.55156H15.31C15.83 5.55156 16.31 5.90156 16.31 6.31156V7.80156C16.3091 7.86919 16.3174 7.93647 16.3347 8.00156H8.69284Z" fill="#1E293B"/>
</svg>
